<?xml version="1.0" encoding="UTF-8"?>
<svg version="1.1" xmlns="http://www.w3.org/2000/svg" width="512" height="512">
<path d="M0 0 C21.00977721 -0.44485908 42.01877281 -0.7793753 63.03231239 -0.98443127 C72.79072592 -1.08219829 82.54620527 -1.21533847 92.30273438 -1.43334961 C100.81197325 -1.62339837 109.31908715 -1.74545571 117.83038938 -1.7876814 C122.33388583 -1.81235198 126.83130685 -1.86980379 131.33284378 -2.00887108 C158.61591019 -2.8192616 158.61591019 -2.8192616 165.81548309 1.81054306 C170.3077101 6.09575023 173.11286541 10.94141961 175.72010422 16.52342796 C177.91560818 20.77168302 180.97207325 24.32363094 184 28 C189.3998035 34.85848017 194.59981533 41.84751517 199.75 48.89453125 C203.74126806 54.33797943 207.83358142 59.68967632 212 65 C217.38843796 71.86785285 222.59945326 78.84701976 227.75 85.89453125 C231.74127238 91.33798533 235.83373412 96.6895517 240 102 C246.01428921 109.66969077 251.82004127 117.47668054 257.578125 125.33984375 C262.65678507 132.27282558 267.82997876 139.13504505 273 146 C276.7902902 144.49066744 278.58677989 142.31798482 281.0625 139.125 C284.40079226 134.92609709 287.83928183 130.91946003 291.5 127 C294.95232003 123.2920629 298.26526339 119.51488883 301.4375 115.5625 C305.28110057 110.78378372 309.36960164 106.30842313 313.55834961 101.83618164 C316.67553945 98.48900673 319.63573798 95.06994977 322.5 91.5 C326.31994011 86.73891522 330.38938819 82.28726975 334.55859375 77.8359375 C337.67568554 74.48883131 340.63581113 71.06985859 343.5 67.5 C347.31994011 62.73891522 351.38938819 58.28726975 355.55859375 53.8359375 C358.67568554 50.48883131 361.63581113 47.06985859 364.5 43.5 C368.3205849 38.73811158 372.39067803 34.28564406 376.56079102 29.83374023 C379.65780084 26.508452 382.59621684 23.11280061 385.4375 19.5625 C386.45853569 18.3281572 386.45853569 18.3281572 387.50019836 17.06887817 C388.78874169 15.48699966 390.07371622 13.90046748 391.28801537 12.26090622 C400.20914609 0.23557642 400.20914609 0.23557642 407.21084595 -1.22967529 C411.99787611 -1.78305501 416.74786872 -1.58043534 421.55078125 -1.3671875 C423.30331944 -1.34101307 425.05596144 -1.3211142 426.80863953 -1.30715942 C431.38008017 -1.25417921 435.94510206 -1.1171381 440.51403809 -0.96130371 C445.19272015 -0.81701458 449.87245981 -0.75392341 454.55273438 -0.68359375 C463.7046146 -0.53429838 472.85176989 -0.29599344 482 0 C480.28877436 3.63401577 478.20066113 6.12637103 475.4375 9.0625 C472.02391359 12.73250604 468.76044817 16.45998885 465.625 20.375 C461.75781137 25.1714071 457.65019284 29.6704146 453.44189453 34.16357422 C450.32460664 37.51081785 447.36433518 40.92995906 444.5 44.5 C440.68005989 49.26108478 436.61061181 53.71273025 432.44140625 58.1640625 C429.32431446 61.51116869 426.36418887 64.93014141 423.5 68.5 C419.68005989 73.26108478 415.61061181 77.71273025 411.44140625 82.1640625 C408.32431446 85.51116869 405.36418887 88.93014141 402.5 92.5 C398.68005989 97.26108478 394.61061181 101.71273025 390.44140625 106.1640625 C387.32431446 109.51116869 384.36418887 112.93014141 381.5 116.5 C377.68005989 121.26108478 373.61061181 125.71273025 369.44140625 130.1640625 C366.32431446 133.51116869 363.36418887 136.93014141 360.5 140.5 C356.68005989 145.26108478 352.61061181 149.71273025 348.44140625 154.1640625 C345.32431446 157.51116869 342.36418887 160.93014141 339.5 164.5 C336.15696252 168.66668439 332.64868696 172.60402205 329 176.5 C322.93324517 182.98315745 316.93473707 189.5978944 312 197 C318.99508343 206.54963817 326.00117087 216.08230943 333.25 225.44140625 C342.08292247 236.84725197 350.7910109 248.351805 359.42578125 259.90820312 C363.53852655 265.40472734 367.70545841 270.85899332 371.875 276.3125 C377.02824097 283.05450412 382.11428479 289.83895685 387.125 296.6875 C392.21014978 303.63624569 397.43574169 310.45693769 402.75048828 317.23120117 C407.54392479 323.36179643 412.15850055 329.61196616 416.75 335.89453125 C420.74126806 341.33797943 424.83358142 346.68967632 429 352 C434.38843796 358.86785285 439.59945326 365.84701976 444.75 372.89453125 C448.74126806 378.33797943 452.83358142 383.68967632 457 389 C462.38843796 395.86785285 467.59945326 402.84701976 472.75 409.89453125 C476.74126986 415.33798188 480.83363554 420.68963099 485 426 C491.65652398 434.48575478 498.06829106 443.139425 504.41796875 451.85644531 C506.5378385 454.72873797 508.72147555 457.55112986 510.91601562 460.36669922 C512 462 512 462 512 464 C491.42481417 464.28058127 470.84994464 464.49205685 450.27323246 464.62174606 C440.71853163 464.68356999 431.16502083 464.76782098 421.61108398 464.90527344 C413.28172657 465.02505054 404.95323102 465.10233723 396.62303632 465.12906194 C392.21351261 465.14468054 387.80645394 465.18125462 383.39772224 465.26876068 C379.24283537 465.35055596 375.09141421 465.37527771 370.93579865 465.35729218 C369.41552023 465.36057915 367.89511959 465.38426539 366.37553978 465.4304657 C354.9204674 465.76149569 354.9204674 465.76149569 350.1520977 461.38784027 C347.77904357 458.45096484 345.89371532 455.26365519 344 452 C342.93502921 450.55138294 341.85188338 449.11551596 340.734375 447.70703125 C340.24364502 447.06604492 339.75291504 446.42505859 339.24731445 445.76464844 C338.75320068 445.12043945 338.25908691 444.47623047 337.75 443.8125 C336.63409158 442.35548637 335.51820687 440.89845458 334.40234375 439.44140625 C333.84144043 438.70937988 333.28053711 437.97735352 332.70263672 437.22314453 C330.45422199 434.28737388 328.20908946 431.3491011 325.96386719 428.41088867 C321.65104933 422.76737139 317.33301888 417.12802452 313 411.5 C307.54091682 404.40936531 302.106922 397.29963842 296.67333984 390.18945312 C293.94966736 386.62571008 291.22478337 383.06289369 288.5 379.5 C287.41666062 378.08333796 286.33332729 376.66667128 285.25 375.25 C284.71375 374.54875 284.1775 373.8475 283.625 373.125 C274.6875 361.4375 274.6875 361.4375 265.75 349.75 C265.21366943 349.04866943 264.67733887 348.34733887 264.12475586 347.62475586 C263.04213965 346.20897692 261.95962002 344.79312412 260.87719727 343.37719727 C258.15868159 339.82133461 255.43846615 336.26679681 252.71484375 332.71484375 C251.90140503 331.65317993 251.90140503 331.65317993 251.0715332 330.57006836 C249.9912804 329.16023597 248.91039911 327.75088489 247.82885742 326.34204102 C245.04741686 322.71044507 242.29679098 319.05965522 239.5859375 315.375 C239.03623291 314.63064697 238.48652832 313.88629395 237.92016602 313.11938477 C236.86819674 311.69167795 235.82157897 310.26000863 234.78100586 308.82397461 C233.56807628 307.17992971 232.29002168 305.58427456 231 304 C230.34 304 229.68 304 229 304 C227.64902626 305.51151546 226.37072655 307.08813313 225.125 308.6875 C221.57547927 313.13296085 217.89442935 317.35497582 214 321.5 C210.35049801 325.39513054 206.84295783 329.33341487 203.5 333.5 C199.68005989 338.26108478 195.61061181 342.71273025 191.44140625 347.1640625 C188.32431446 350.51116869 185.36418887 353.93014141 182.5 357.5 C178.68005989 362.26108478 174.61061181 366.71273025 170.44140625 371.1640625 C167.32431446 374.51116869 164.36418887 377.93014141 161.5 381.5 C157.68005989 386.26108478 153.61061181 390.71273025 149.44140625 395.1640625 C146.32431446 398.51116869 143.36418887 401.93014141 140.5 405.5 C136.68005989 410.26108478 132.61061181 414.71273025 128.44140625 419.1640625 C125.32431446 422.51116869 122.36418887 425.93014141 119.5 429.5 C115.68498567 434.2549454 111.62221425 438.70230772 107.45678711 443.14648438 C103.43511035 447.46274461 99.69677005 451.93433304 96.03515625 456.5625 C95.02775391 457.7690625 95.02775391 457.7690625 94 459 C93.29430374 459.86356613 92.58860748 460.72713226 91.86152649 461.61686707 C88.28057428 464.59915123 85.63514409 464.67873596 81.18041992 464.56762695 C80.02352661 464.56872215 80.02352661 464.56872215 78.84326172 464.56983948 C76.30493778 464.56636796 73.76847033 464.52753062 71.23046875 464.48828125 C69.4664256 464.4789515 67.70236947 464.47183615 65.93830872 464.46684265 C61.30359904 464.44778548 56.66967742 464.39869609 52.03527832 464.34332275 C47.30292419 464.29210241 42.57044227 464.26932268 37.83789062 464.24414062 C28.55824821 464.19057581 19.27918973 464.10527877 10 464 C11.61817175 460.59170063 13.47765964 458.20469242 16.0625 455.4375 C19.27291085 451.94081047 22.34456239 448.39200607 25.3125 444.6875 C29.20320708 439.87334412 33.33000466 435.35075666 37.55786133 430.83666992 C40.67524726 427.48935757 43.63559167 424.07013212 46.5 420.5 C49.84301959 416.3333379 53.35115137 412.39580188 57 408.5 C61.45874444 403.73911006 65.6379783 398.8353218 69.72265625 393.74609375 C72.66077451 390.20321701 75.78231178 386.84558228 78.91650391 383.47802734 C81.88730066 380.26683127 84.69968321 376.97363159 87.4375 373.5625 C91.28110057 368.78378372 95.36960164 364.30842313 99.55834961 359.83618164 C102.67553945 356.48900673 105.63573798 353.06994977 108.5 349.5 C112.31994011 344.73891522 116.38938819 340.28726975 120.55859375 335.8359375 C123.67568554 332.48883131 126.63581113 329.06985859 129.5 325.5 C133.31994011 320.73891522 137.38938819 316.28726975 141.55859375 311.8359375 C144.67568554 308.48883131 147.63581113 305.06985859 150.5 301.5 C154.31994011 296.73891522 158.38938819 292.28726975 162.55859375 287.8359375 C166.45391054 283.65318003 170.06333761 279.29385816 173.63671875 274.83203125 C176.88452536 270.94003159 180.33758061 267.25333639 183.83984375 263.58984375 C186.98573704 260.25889791 189.55826105 256.88010299 192 253 C191.35675781 252.18660156 190.71351563 251.37320313 190.05078125 250.53515625 C183.16723219 241.81246143 176.3925871 233.01078149 169.65722656 224.17333984 C166.9420536 220.6125753 164.22075902 217.05649684 161.5 213.5 C160.41663645 212.08335644 159.33330314 210.66668976 158.25 209.25 C157.71375 208.54875 157.1775 207.8475 156.625 207.125 C116 154 75.375 100.875 34.75 47.75 C34.21366943 47.04866943 33.67733887 46.34733887 33.12475586 45.62475586 C32.04213965 44.20897692 30.95962002 42.79312412 29.87719727 41.37719727 C27.15868159 37.82133461 24.43846615 34.26679681 21.71484375 30.71484375 C19.01646906 27.19489352 16.32339958 23.67095052 13.63476562 20.14355469 C12.51238072 18.67184928 11.38860799 17.20120156 10.26367188 15.73144531 C8.56672272 13.51213918 6.87634215 11.28797886 5.1875 9.0625 C4.66534912 8.38179443 4.14319824 7.70108887 3.60522461 6.99975586 C0 2.2285133 0 2.2285133 0 0 Z M93 46 C93.40117538 46.53476456 93.80235077 47.06952911 94.21568298 47.62049866 C94.74770828 48.32975998 95.27973358 49.0390213 95.82788086 49.76977539 C96.35280624 50.46953995 96.87773163 51.1693045 97.41856384 51.89027405 C98.865238 53.82021982 100.3100983 55.75150328 101.75390625 57.68359375 C111.5297527 70.75554418 121.46030926 83.70692834 131.41796875 96.640625 C136.0684032 102.68637123 140.69533244 108.75016216 145.32666016 114.81054688 C148.05033264 118.37428992 150.77521663 121.93710631 153.5 125.5 C154.58333938 126.91666204 155.66667271 128.33332872 156.75 129.75 C157.28625 130.45125 157.8225 131.1525 158.375 131.875 C212 202 265.625 272.125 346.8762207 378.37670898 C347.95533993 379.78779001 349.03460335 381.19876078 350.11401367 382.60961914 C352.88803918 386.23583735 355.65923399 389.86416611 358.42578125 393.49609375 C359.2765625 394.61177734 359.2765625 394.61177734 360.14453125 395.75 C361.20929075 397.1464059 362.27318227 398.54347436 363.3359375 399.94140625 C364.34309684 401.261495 365.36988054 402.56681414 366.41455078 403.85742188 C368 406 368 406 369.40966797 408.70507812 C371.35229852 411.98751396 372.83067264 413.83688425 376 416 C382.98020414 417.66887292 390.39540967 416.93639868 397.5 416.625 C399.4868675 416.57479386 401.47385651 416.52917442 403.4609375 416.48828125 C408.31030822 416.37852842 413.15381386 416.2062612 418 416 C414.09886971 409.97433524 409.96160349 404.24539524 405.5 398.625 C400.55100579 392.33059692 395.72178227 385.96649945 391 379.5 C386.43346648 373.25099225 381.77753014 367.0892181 377 361 C371.61156204 354.13214715 366.40054674 347.15298024 361.25 340.10546875 C357.25873194 334.66202057 353.16641858 329.31032368 349 324 C343.61156204 317.13214715 338.40054674 310.15298024 333.25 303.10546875 C329.25873104 297.66201934 325.16639153 292.31034633 321 287 C315.52366079 280.01943357 310.2203843 272.92810908 304.97973633 265.76928711 C300.84161206 260.12202656 296.62186436 254.54999664 292.32421875 249.0234375 C290.67441205 246.8773024 289.05381045 244.723744 287.45703125 242.5390625 C287.04428955 241.97695068 286.63154785 241.41483887 286.20629883 240.83569336 C285.07014969 239.28334711 283.94108681 237.72582161 282.8125 236.16796875 C282.214375 235.45253906 281.61625 234.73710937 281 234 C280.34 234 279.68 234 279 234 C278.8976001 233.42757568 278.7952002 232.85515137 278.68969727 232.26538086 C277.87407063 229.58637216 276.68161237 227.96426734 274.96484375 225.75390625 C274.01013184 224.51386841 274.01013184 224.51386841 273.03613281 223.2487793 C272.34358398 222.36230713 271.65103516 221.47583496 270.9375 220.5625 C269.47250221 218.66418137 268.00766293 216.7657404 266.54296875 214.8671875 C265.78935059 213.89491211 265.03573242 212.92263672 264.25927734 211.92089844 C260.73240576 207.36119542 257.2410451 202.77465455 253.75 198.1875 C253.080896 197.309729 252.41179199 196.43195801 251.72241211 195.52758789 C247.31049117 189.73623053 242.93049669 183.9220332 238.57275391 178.08984375 C234.46050252 172.59396668 230.2940471 167.14035992 226.125 161.6875 C220.97175903 154.94549588 215.88571521 148.16104315 210.875 141.3125 C205.78985022 134.36375431 200.56425831 127.54306231 195.24951172 120.76879883 C190.45607521 114.63820357 185.84149945 108.38803384 181.25 102.10546875 C177.25872888 96.66201639 173.16631515 91.31040867 169 86 C162.994393 78.34270352 157.1913745 70.55153045 151.44921875 62.6953125 C150.88436768 61.96376953 150.3195166 61.23222656 149.73754883 60.47851562 C148 58 148 58 146.40893555 54.78710938 C144.38618391 51.1757187 142.58515386 48.13860704 139 46 C131.38358795 44.008358 123.21587778 44.87610171 115.4375 45.25 C113.26251676 45.31024974 111.08737357 45.3649927 108.91210938 45.4140625 C103.60456134 45.54573974 98.30302642 45.74598235 93 46 Z " fill="#FEFEFE" transform="translate(0,24)"/>
</svg>
